<svg xmlns="http://www.w3.org/2000/svg" fill="none" viewBox="0 0 70 70" height="70" width="70">
<circle fill="white" r="35" cy="35" cx="35"></circle>
<path fill="#E4002B" d="M60.6476 29.1128L59.8111 32.8283C59.7739 33.0056 59.6128 33.1339 59.4269 33.1339H58.2372C58.0141 33.1339 57.8344 32.9506 57.8468 32.7244C57.8468 32.6756 57.8468 32.6572 57.8468 32.6572C57.9026 31.4472 57.128 30.5428 55.3744 30.5428C52.4558 30.5428 50.3365 32.9017 50.0577 36.0061C49.7726 39.2083 52.0406 41.0661 55.1823 41.0661C56.7934 41.0661 58.0699 40.7606 58.7825 40.5344C59.0675 40.4428 59.3402 40.6872 59.2844 40.9744L58.9126 42.8933C58.8816 43.0583 58.7639 43.1928 58.6028 43.2417C57.9583 43.4433 56.1489 43.92 53.3853 43.92C46.8107 43.92 44.1462 40.1922 44.5551 36.3911C44.9207 33.0056 47.1949 28.0189 56.1489 28.0189C57.8654 28.0189 59.2348 28.2878 60.313 28.5811C60.5609 28.6422 60.7034 28.8806 60.6476 29.1128ZM23.2761 28.5872L23.0592 29.5528C23.0096 29.7667 23.1397 29.9867 23.3566 30.0478C23.7346 30.1944 23.8214 30.5489 23.4868 30.8178L17.9842 35.3278L18.9261 31.0806C19.0872 30.4267 19.6139 30.1578 19.9423 30.0539C19.9609 30.0478 19.9795 30.0417 19.9981 30.0356C20.1468 29.9928 20.2521 29.8706 20.2893 29.7239L20.5124 28.7156C20.5682 28.4772 20.3823 28.2511 20.1344 28.2511H13.0455C12.8472 28.2511 12.6737 28.3856 12.6303 28.5811L12.4011 29.6017C12.3515 29.8094 12.4754 30.0172 12.6799 30.0844C12.7233 30.0967 12.7481 30.1089 12.7481 30.1089C13.1942 30.28 13.7085 30.665 13.4917 31.6856L11.8062 39.3244C11.3662 41.4083 10.6474 41.8361 9.96581 41.9094C9.95962 41.9094 9.95342 41.9094 9.94103 41.9094C9.75513 41.9278 9.60641 42.0622 9.56923 42.2394L9.35235 43.2172C9.29658 43.4678 9.48867 43.7061 9.75513 43.7061H17.2096C17.3893 43.7061 17.5504 43.5839 17.5876 43.4067L17.8479 42.2639C17.8912 42.0744 17.7859 41.8911 17.6062 41.8178C17.5876 41.8117 17.5752 41.8056 17.5566 41.7994C17.1786 41.6467 16.6643 41.3289 16.7944 40.7178L17.662 36.8128C20.6301 42.16 21.6154 43.7061 25.1722 43.7061H28.3882C28.5679 43.7061 28.7291 43.5839 28.7662 43.4067L28.9893 42.4167C29.0451 42.16 28.8592 41.9156 28.5927 41.9156C27.7872 41.9033 27.3906 41.72 26.5912 40.7056L22.4581 35.1933L27.8244 30.7933C28.5432 30.2372 29.4231 30.0844 29.9126 30.0172C29.9126 30.0172 29.9312 30.0172 29.9622 30.0111C30.1357 29.9928 30.272 29.8767 30.3092 29.7117L30.5261 28.7339C30.5818 28.4894 30.3959 28.2633 30.1419 28.2633H23.6912C23.4929 28.2572 23.3194 28.3978 23.2761 28.5872ZM43.1361 32.8283H44.394C44.5799 32.8283 44.7348 32.7 44.7782 32.5289L45.6271 28.7278C45.6829 28.4894 45.497 28.2572 45.2429 28.2572H32.0442C31.8459 28.2572 31.6724 28.3917 31.6291 28.5872L31.3998 29.6017C31.3564 29.7972 31.4679 29.9989 31.66 30.0661C31.6724 30.0722 31.691 30.0783 31.7034 30.0844C32.1372 30.2494 32.7444 30.665 32.478 31.6856L29.8878 43.2478C29.8321 43.4861 30.0179 43.7183 30.2658 43.7183H36.2021C36.388 43.7183 36.5429 43.59 36.5801 43.4189L36.8404 42.2639C36.8776 42.0928 36.7908 41.9217 36.6297 41.8483C36.6111 41.8422 36.5925 41.83 36.5739 41.8239C36.1959 41.6406 35.6382 41.225 35.8241 40.4122C35.8427 40.3022 36.4066 37.7967 36.4066 37.7967H41.4568C41.6427 37.7967 41.7976 37.6683 41.841 37.4911L42.3182 35.3828C42.3739 35.1383 42.188 34.9122 41.934 34.9122H37.0573L37.9682 30.8178L41.3763 30.8117C42.4793 30.8117 42.8139 31.38 42.7519 32.3456C42.7519 32.3456 42.7519 32.3578 42.7457 32.3944C42.7209 32.6267 42.9068 32.8283 43.1361 32.8283Z"></path>
</svg>
