<svg xmlns="http://www.w3.org/2000/svg" fill="none" viewBox="0 0 71 71" height="71" width="71">
<path fill="white" d="M35.6842 0.732117C16.4136 0.732117 0.684204 16.4615 0.684204 35.7321C0.684204 55.0027 16.4136 70.7321 35.6842 70.7321C54.9548 70.7321 70.6842 55.0027 70.6842 35.7321C70.6842 16.4615 54.9548 0.732117 35.6842 0.732117ZM44.2489 65.8733C44.2489 65.6262 44.2489 65.3792 44.2489 65.0498C44.2489 64.5556 44.3313 64.0615 44.6607 63.9792L45.5666 62.4968C46.2254 61.4262 46.2254 60.9321 46.2254 60.2733C46.2254 59.9439 46.2254 59.6145 46.3077 59.1204L45.7313 58.4615V57.9674L44.743 57.1439H44.2489L42.4371 56.1556V56.0733C42.4371 56.0733 42.2724 55.2498 41.8607 54.5086C41.5313 53.8498 41.5313 53.6851 41.5313 53.1086C41.5313 52.9439 41.5313 52.7792 41.5313 52.5321C41.5313 51.9556 41.5313 51.7086 41.4489 51.6262H41.2842L41.5313 50.9674C41.6136 50.7204 41.7783 50.4733 41.943 50.3086C42.1077 50.1439 42.2724 49.8968 42.3548 49.7321C42.4371 49.4851 42.4371 48.6615 42.3548 48.0851L41.4489 47.2615L41.0371 46.438C40.9548 46.2733 40.9548 46.2733 40.9548 46.2733L40.8724 46.3556C40.7077 46.438 40.543 46.6027 40.296 46.6027C40.1313 46.6027 40.0489 46.6027 39.8842 46.5204C39.5548 46.1909 39.3901 46.0262 39.3901 45.7792C39.3901 45.6145 39.4724 45.5321 39.5548 45.3674C39.2254 45.2027 38.5666 44.8733 37.9901 44.3792C37.2489 43.7204 36.4254 43.638 36.4254 43.638H34.943C34.4489 43.638 34.0371 43.1439 33.8724 42.9792H31.5666L31.1548 42.8145C30.743 42.6498 30.0842 42.238 30.0019 42.238C29.9195 42.238 28.1901 41.2498 27.3666 40.2615C27.0371 39.8498 26.8724 39.5204 26.9548 39.3556C26.9548 39.2733 27.0371 39.1909 27.2019 39.1909C26.7901 38.1204 26.2136 36.9674 25.8842 36.4733L25.9666 36.7204C26.0489 36.8027 26.1313 37.1321 26.296 37.4615C26.6254 38.2027 26.543 38.5321 26.543 38.6145C26.543 38.6968 26.3783 38.9439 25.9666 38.9439C25.6371 38.9439 25.143 38.7792 25.143 38.7792L25.0607 38.6968L24.6489 38.2851C24.2371 37.8733 23.9901 37.4615 23.9077 37.4615C23.9077 37.4615 23.3313 36.638 23.1666 35.9792C23.0842 35.5674 23.0019 35.4851 22.8371 35.3204C22.7548 35.238 22.6724 35.1556 22.5901 35.0733C22.343 34.6615 21.6842 33.1792 21.6019 33.0968V33.0145V32.0262C21.4371 31.8615 21.0254 31.2027 20.5313 30.3792C20.0371 29.5556 20.1195 29.0615 20.2019 28.8968L20.0371 27.8262L20.2842 26.1792C20.4489 25.3556 20.696 24.5321 20.696 24.5321L21.5195 22.638L21.2724 21.8968C21.0254 21.238 20.6136 21.0733 20.6136 21.0733L20.4489 20.9909V20.8262V15.5556L20.0371 14.8968C19.7901 14.5674 19.7901 14.3204 19.8724 14.1556C19.543 13.7439 19.1313 13.3321 18.9666 13.3321C18.8019 13.4968 18.6371 13.5792 18.4724 13.5792C18.3901 13.5792 18.3077 13.4968 18.2254 13.4968L16.743 14.4851L15.096 15.3909L14.4371 16.4615C14.0254 17.1204 13.7783 17.2851 13.4489 17.3674C13.2842 17.4498 13.0371 17.5321 12.543 17.8615C12.0489 18.2733 11.9666 18.5204 11.9666 18.6027C11.9666 18.6851 12.0489 18.7674 12.0489 18.7674L12.296 19.0145L11.9666 19.1792C11.8842 19.1792 10.8136 19.5909 10.3195 19.7556C10.1548 19.838 9.99009 19.838 9.82538 19.838C9.57832 19.838 9.49597 19.7556 9.41362 19.6733V19.5909L9.16656 18.438L9.41362 17.9439C9.57832 17.5321 10.6489 16.8733 10.9783 16.6262L11.3901 15.638L12.0489 14.8968L10.7313 14.1556L10.5666 14.0733C11.3077 13.1674 12.1313 12.3439 13.0371 11.5204L14.1901 11.1086L14.8489 10.2851L17.7313 8.39094L18.3901 7.81447C19.0489 7.238 19.296 7.238 20.0371 7.07329H20.1195C20.3666 7.07329 20.5313 6.99094 20.6136 6.82623C20.696 6.74388 20.696 6.66153 20.696 6.66153L20.6136 6.41447H21.8489C21.8489 6.41447 22.6724 6.24976 23.496 6.24976H24.2371C24.2371 6.24976 25.4724 6.74388 26.4607 6.74388C26.6254 6.74388 26.7077 6.74388 26.7901 6.74388C26.8724 6.66153 27.0371 6.57918 27.2019 6.49682L27.5313 6.41447C28.1901 6.16741 28.6019 6.08506 28.9313 5.75565C29.096 5.59094 29.5077 5.50859 30.0842 5.50859C30.6607 5.50859 31.1548 5.59094 31.1548 5.59094H31.3195V6.0027C31.5666 6.08506 31.9783 6.16741 32.4724 6.16741C32.8019 6.16741 33.1313 6.16741 33.4607 6.08506L33.0489 5.17918L34.0371 4.19094L35.1901 4.6027L35.6842 4.35565C35.8489 4.27329 36.096 4.19094 36.4254 4.19094C36.8371 4.19094 37.3313 4.27329 37.4136 4.27329H42.4371C42.9313 4.27329 43.5077 4.438 44.0842 4.84976C44.1666 4.93212 44.2489 4.93212 44.4136 4.93212C44.6607 4.93212 44.9901 4.84976 44.9901 4.84976H45.0724H45.2371C45.3195 4.84976 45.4842 4.84976 46.143 5.50859H46.8019L48.943 6.74388L49.6842 7.32035L50.2607 9.13212L50.8371 10.1204L51.6607 11.5204L51.496 12.4262L51.1666 13.2498L51.0019 13.1674C51.0019 13.1674 50.1783 12.9204 49.2724 12.7556H48.2842L47.3783 12.0145L46.7195 11.1909C46.6371 11.1086 45.9783 10.5321 45.2371 9.70859C45.0724 9.46153 44.8254 9.37918 44.743 9.37918C44.496 9.37918 44.4136 9.70859 44.4136 9.70859V9.79094L43.096 10.6145L42.2724 11.438C42.2724 11.438 41.2842 12.0968 40.9548 12.9204C40.8724 13.1674 40.7901 13.3321 40.7077 13.4145L41.5313 14.6498L42.3548 14.8968L42.9313 16.2968C43.096 16.4615 44.1666 17.6968 44.5783 18.0262C44.8254 18.2733 45.1548 18.5204 45.3195 18.6027L46.2254 17.6968C46.2254 17.5321 46.3901 16.8733 46.4724 15.9674C46.4724 15.7204 46.4724 15.638 46.5548 15.4733L46.2254 15.8027L46.8019 13.9909H48.1195L50.5077 14.8968L51.496 15.8851L52.4842 17.038V17.1204C52.4842 17.1204 52.6489 17.6968 52.6489 18.2733C52.6489 18.7674 52.6489 18.9321 53.0607 19.6733C53.3901 20.3321 53.9666 20.9086 54.6254 21.238C55.1195 21.4851 55.2019 22.0615 55.1195 22.3086L55.696 23.3792V25.0262L53.4724 23.7086L52.5666 22.5556L51.8254 22.3909L52.5666 22.9674L53.3901 24.1204L53.2254 24.2027C53.2254 24.2027 52.6489 24.6145 52.2371 24.7792C51.8254 24.9439 51.3313 25.1909 51.3313 25.1909H51.2489H48.5313L47.9548 25.7674L47.543 26.4262L46.9666 27.4145C46.9666 27.4145 46.5548 28.1556 45.8136 28.5674C45.6489 28.6498 45.6489 28.7321 45.6489 28.8145C45.6489 28.8968 45.7313 28.9792 45.8136 29.0615L45.896 29.1439V30.6262L44.0019 31.3674L42.2724 32.3556L42.9313 34.0851L43.2607 35.3204L42.6019 36.3086L41.5313 36.0615C41.2019 35.9792 40.9548 35.8145 40.7901 35.5674C40.6254 35.238 40.6254 34.9086 40.6254 34.7439C40.4607 34.5792 40.0489 34.1674 39.8842 33.838C39.7195 33.5909 39.143 33.5086 38.9783 33.5086H38.5666C38.2371 33.5086 36.5901 33.9204 35.8489 34.1674C35.5195 34.3321 35.3548 34.4968 35.2724 34.7439C35.1901 34.9086 35.0254 35.1556 34.7783 35.4027C34.2842 35.7321 33.7077 36.4733 33.6254 36.5556C33.543 36.8027 33.2136 37.5439 33.2136 37.7909V38.8615L33.7077 40.4262L34.3666 40.9204C34.6136 40.9204 35.1901 40.7556 35.6842 40.5086C36.1783 40.2615 36.343 40.0145 36.343 40.0145V39.9321C36.4254 39.8498 37.0842 39.1909 37.496 39.0262C37.6607 38.9439 37.743 38.9439 37.9077 38.9439C38.1548 38.9439 38.3195 39.0262 38.3195 39.0262H38.4019L39.143 39.7674L38.9783 40.4262L38.7313 41.3321L38.8136 42.1556H39.8019L40.543 42.8968L41.2019 43.3909C41.3666 43.4733 42.1901 43.8027 42.6019 44.0498C42.9313 44.2968 43.5901 44.6262 43.7548 44.7086H44.0842C44.4136 44.7086 44.6607 44.4615 44.6607 44.4615L45.6489 43.7204L46.6371 43.1439C46.9666 42.9792 47.2136 42.8968 47.3783 42.8968C47.543 42.8968 47.7077 42.9792 47.7901 42.9792C47.9548 43.0615 48.1195 43.1439 48.4489 43.1439H50.096C50.5077 43.1439 50.8371 43.3086 51.0019 43.3909H52.2371L53.7195 44.2968L54.8724 45.6145L56.1901 45.7792L56.1077 46.8498C56.1077 47.0145 56.1901 47.5909 56.0254 48.0027C55.943 48.1674 56.0254 48.4145 56.0254 48.7439C56.0254 49.1556 56.1077 49.7321 56.0254 50.3909C55.943 51.2968 55.6136 51.5439 55.3666 51.6262V52.6145L54.1313 55.0851V55.9086L53.5548 56.8968L52.7313 58.1321C52.4842 58.4615 51.9077 59.2851 51.6607 59.6145C51.6607 59.7792 51.743 60.2733 51.6607 60.6027C51.496 61.0145 51.0842 61.5086 51.0842 61.5086C50.6724 61.9204 50.0136 62.6615 49.9313 62.9086C49.7666 63.3204 49.3548 63.8145 49.1901 63.8968L48.3666 65.6262L48.1195 65.9556C46.7195 66.5321 45.3195 67.0262 43.7548 67.3556L43.8371 67.0262L44.0842 66.6145C44.3313 66.5321 44.3313 66.3674 44.2489 65.8733ZM50.5901 38.1204V39.6851L50.096 40.4262C49.9313 40.7556 49.8489 40.838 49.6842 40.838C49.6019 40.838 49.5195 40.7556 49.5195 40.7556C49.5195 40.7556 49.4371 40.6733 49.1901 40.7556C48.943 40.838 48.7783 40.838 48.6136 40.838C48.2842 40.838 48.1195 40.6733 47.9548 40.3439C47.8724 40.2615 47.7901 40.0968 47.7077 39.9321C47.543 39.6851 47.4607 39.6851 47.3783 39.6851C47.296 39.6851 47.2136 39.7674 47.2136 39.8498L47.1313 40.0145H43.5077L42.5195 39.0262H41.943C41.7783 39.0262 41.7783 39.0262 41.3666 38.3674C40.9548 37.7909 40.8724 37.4615 40.9548 37.2968C40.9548 37.2145 41.0371 37.1321 41.2842 37.1321C41.696 37.1321 42.6842 37.7909 42.9313 38.038H43.4254C44.0019 38.038 44.1666 38.038 44.1666 38.038H44.9901L45.896 38.1204C45.9783 38.1204 46.143 38.038 46.4724 38.038C46.7195 38.038 46.9666 38.038 47.2136 38.1204C47.3783 38.1204 47.7077 38.2027 48.3666 38.2027C49.2724 38.2027 50.343 38.1204 50.343 38.1204H50.5901Z"></path>
</svg>
