<svg xmlns="http://www.w3.org/2000/svg" fill="none" viewBox="0 0 70 70" height="70" width="70">
<circle fill="white" r="35" cy="35" cx="35"></circle>
<path fill="#E4002B" d="M14.7982 36.8675H8.49517V35.8705H14.7813V36.8675H14.7982ZM14.7982 32.8119H8.49517V33.8089H14.7813V32.8119H14.7982ZM16.3021 25.7992L14.2574 24.7177L14.832 23.6362L16.8767 24.7177L17.316 23.8728L12.5845 21.3719L12.1452 22.2168L14.004 23.1969L13.4294 24.2784L11.5706 23.2983L11.1313 24.1432L15.8628 26.6441L16.3021 25.7992ZM53.5963 44.2351L55.6241 45.3166L55.0496 46.398L53.0218 45.3166L52.5655 46.1615L57.2801 48.6793L57.7364 47.8344L55.8776 46.8374L56.4521 45.7559L58.3109 46.7529L58.7672 45.908L54.0526 43.3902L53.5963 44.2351ZM50.1491 49.2707L50.8588 49.8453L52.0248 48.4089L53.1739 49.3383L52.4135 50.2677L53.1063 50.8423L53.8667 49.9129L54.7454 50.6226L53.6132 52.0082L54.323 52.5828L56.0466 50.4536L51.9065 47.074L50.1491 49.2707ZM49.4732 49.9467L52.9035 54.036L51.822 54.9485C51.0278 55.6244 50.166 55.6244 49.4563 54.7626C48.9831 54.1881 48.9662 53.5798 49.2028 53.0728L47.0736 51.9575L47.8679 51.2985L49.8111 52.3124L50.0477 52.1096L48.7466 50.555L49.4732 49.9467ZM50.166 54.1543C50.4702 54.5261 50.8081 54.5768 51.2475 54.2219L51.5685 53.9515L50.6054 52.8193L50.2505 53.1235C49.8956 53.4277 49.8618 53.7825 50.166 54.1543ZM46.3301 52.4645L48.8648 57.1622L47.5975 57.855C46.7357 58.3281 45.9415 58.1254 45.519 57.348C45.2993 56.9594 45.3162 56.4862 45.6035 56.1145C45.1473 56.1652 44.6403 55.9962 44.3361 55.4217C43.8123 54.4585 44.0996 53.6643 45.1135 53.1235L46.3301 52.4645ZM47.0736 55.8103L46.6005 56.0638C46.1949 56.2835 46.1949 56.6045 46.347 56.858C46.516 57.1791 46.7695 57.2974 47.1919 57.0777L47.6482 56.8242L47.0736 55.8103ZM46.6681 55.0668L45.9246 53.698L45.4683 53.9346C44.9952 54.1881 44.9445 54.5768 45.1473 54.9654C45.4176 55.4555 45.7556 55.5568 46.2456 55.3034L46.6681 55.0668ZM42.3929 56.8411C41.7 56.7397 41.4466 56.5538 41.3452 56.2666C41.2269 55.9286 41.3452 55.6582 41.7338 55.523C42.038 55.4217 42.4267 55.5061 42.866 55.7934L43.2716 54.9316C42.7815 54.6105 42.1901 54.4078 41.4973 54.6274C40.551 54.9316 40.1792 55.7427 40.4496 56.5876C40.7368 57.4494 41.2269 57.6691 42.2577 57.8381C42.8998 57.9564 43.1364 58.0916 43.2378 58.3957C43.3223 58.6492 43.1871 58.9027 42.8998 59.0041C42.5449 59.1224 42.3591 59.0548 41.9535 58.8182L41.548 59.6124C42.0718 59.9673 42.5449 60.0855 43.1702 59.8828C44.032 59.5955 44.3868 58.8182 44.1334 58.0578C43.8461 57.2129 43.2716 56.9763 42.3929 56.8411ZM36.6137 58.5816L36.7996 58.852C37.0361 59.173 37.2051 59.4772 37.2051 59.8659C37.222 60.6939 36.6644 61.1501 35.8533 61.1839C35.2956 61.2008 34.907 61.0656 34.4845 60.7784L34.907 59.9842C35.2111 60.2038 35.4815 60.3052 35.8364 60.2883C36.0898 60.2883 36.2588 60.1024 36.2419 59.8828C36.2419 59.6462 36.1574 59.511 35.9716 59.2575L34.8901 57.7198C34.8225 57.9564 34.7549 58.2099 34.7211 58.4802L33.9945 58.1761C34.0621 57.7029 34.1804 57.2805 34.3324 56.9256L33.5382 55.8103L34.569 55.7765L34.8394 56.1483C35.1436 55.8441 35.4984 55.6582 35.9209 55.6582C36.8841 55.6244 37.391 56.1652 37.4079 57.0439C37.4586 57.6691 37.2051 58.1423 36.6137 58.5816ZM36.5461 57.1115C36.5292 56.7566 36.3264 56.5369 35.9547 56.5369C35.7181 56.5369 35.5153 56.6552 35.3632 56.8242L36.1574 57.9057C36.4616 57.6522 36.5461 57.3987 36.5461 57.1115ZM29.6686 54.9992C28.7054 54.7457 27.9618 55.202 27.7253 56.0638C27.4887 56.9425 27.7929 57.3987 28.5533 58.1085C29.0264 58.5647 29.1616 58.8013 29.0771 59.1055C29.0095 59.3589 28.773 59.511 28.4688 59.4265C28.1139 59.3251 27.9787 59.173 27.776 58.7506L26.9986 59.2068C27.2352 59.7814 27.5732 60.1531 28.2153 60.3221C29.094 60.5587 29.8206 60.1024 30.0234 59.3251C30.2431 58.4633 29.8882 57.9564 29.2292 57.348C28.7054 56.8749 28.5871 56.5876 28.6716 56.3004C28.7561 55.9455 29.0095 55.7934 29.3982 55.8948C29.7024 55.9793 29.9896 56.2497 30.1924 56.7397L31.0035 56.2328C30.75 55.6751 30.3614 55.1851 29.6686 54.9992ZM27.2859 54.3402L24.9878 59.173L23.7035 58.5647C22.791 58.1254 22.4192 57.3142 22.8924 56.3004C23.3824 55.2527 24.3794 55.1006 25.2074 55.4893L25.5961 55.6751L26.4241 53.9515L27.2859 54.3402ZM25.2074 56.5031L24.785 56.3004C24.3456 56.0976 23.9908 56.2497 23.788 56.689C23.6021 57.0946 23.6359 57.4832 24.126 57.7198L24.5315 57.9226L25.2074 56.5031ZM22.9431 51.9406L19.9521 56.368L20.7463 56.9087L23.7373 52.4814L22.9431 51.9406ZM20.2732 53.3263C21.3209 52.1941 21.7264 50.9267 20.8646 50.1325C20.2563 49.5749 19.5973 49.6256 18.803 50.0987L19.1748 50.9099C19.7155 50.6226 19.969 50.5888 20.2056 50.8254C20.5942 51.1802 20.3239 51.8393 19.5466 52.6842C18.7692 53.5291 18.144 53.8332 17.7723 53.4953C17.5188 53.2587 17.5357 53.0052 17.7723 52.5659L16.9105 52.1772C16.5387 52.8869 16.4373 53.5798 17.1132 54.1881C17.975 54.9823 19.2255 54.4585 20.2732 53.3263ZM17.4174 46.2291L16.6908 46.7698L17.8061 48.2568L16.6232 49.1355L15.9135 48.1724L15.1868 48.7131L15.8966 49.6763L14.9841 50.3522L13.9195 48.9159L13.1929 49.4566L14.832 51.6534L19.1241 48.4596L17.4174 46.2291ZM14.4095 45.4518C14.4095 44.742 14.5447 44.4717 14.8151 44.3365C15.1361 44.1844 15.4234 44.252 15.5924 44.6068C15.7276 44.8941 15.7107 45.2828 15.491 45.7559L16.4035 46.0263C16.657 45.4855 16.7584 44.8772 16.4373 44.2182C15.998 43.3226 15.153 43.0691 14.3588 43.4747C13.5477 43.8802 13.4125 44.4041 13.3787 45.4518C13.3618 46.1108 13.2605 46.3642 12.9732 46.4994C12.7366 46.6177 12.4662 46.5332 12.3311 46.2629C12.1621 45.9418 12.1959 45.7221 12.3817 45.2997L11.5368 45.0124C11.2665 45.57 11.2158 46.0601 11.503 46.6515C11.9086 47.4626 12.7366 47.6992 13.4632 47.3443C14.2405 46.9557 14.3926 46.3474 14.4095 45.4518ZM55.2692 36.8675H61.5554V35.8705H55.2692V36.8675ZM55.2692 32.8119V33.8089H61.5554V32.8119H55.2692ZM23.0276 29.5168L25.8496 29.0774L25.8158 47.2092H32.1695L32.2033 22.6224L23.0276 23.9573V29.5168ZM44.8262 47.243L44.86 22.6561L35.6843 23.9911V29.5506L38.5063 29.1112L38.4894 47.243H44.8262ZM19.7324 20.7467L19.0227 20.1721L17.8567 21.6085L16.7077 20.6791L17.4681 19.7497L16.7753 19.1751L16.0149 20.1045L15.1361 19.3948L16.2514 18.0092L15.5417 17.4346L13.8181 19.5638L17.975 22.9265L19.7324 20.7467ZM20.4084 20.0538L16.9611 15.9814L18.0426 15.0689C18.8368 14.393 19.6986 14.393 20.4253 15.2379C20.9153 15.8124 20.9153 16.4038 20.6787 16.9277L22.8079 18.0261L22.0137 18.702L20.0704 17.6881L19.8338 17.8909L21.1519 19.4455L20.4084 20.0538ZM19.6986 15.8631C19.3945 15.4913 19.0396 15.4406 18.6172 15.8124L18.2961 16.0828L19.2593 17.2149L19.6142 16.9108C19.9859 16.5897 20.0028 16.2349 19.6986 15.8631ZM23.5514 17.5191L20.9829 12.8214L22.2503 12.1286C23.1121 11.6555 23.9063 11.8413 24.3287 12.6187C24.5484 13.0073 24.5484 13.4805 24.2611 13.8522C24.7174 13.8015 25.2243 13.9705 25.5285 14.545C26.0523 15.5082 25.7651 16.3024 24.7681 16.8432L23.5514 17.5191ZM22.7741 14.1902L23.2473 13.9367C23.6528 13.717 23.6528 13.396 23.5007 13.1425C23.3317 12.8214 23.0783 12.7031 22.6558 12.9228L22.1996 13.1763L22.7741 14.1902ZM23.1966 14.9337L23.9401 16.3024L24.3963 16.049C24.8695 15.7955 24.9202 15.4068 24.7174 15.0182C24.447 14.5281 24.1091 14.4268 23.619 14.6971L23.1966 14.9337ZM27.4718 13.1425C28.1646 13.2439 28.4181 13.4129 28.5195 13.7001C28.6378 14.0381 28.5195 14.3085 28.1308 14.4436C27.8267 14.545 27.438 14.4605 26.9986 14.1733L26.61 15.0351C27.1 15.3562 27.7084 15.5589 28.3843 15.3224C29.3306 15.0013 29.7023 14.2071 29.4151 13.3622C29.1278 12.5004 28.6209 12.2807 27.5901 12.1117C26.948 11.9934 26.7114 11.8751 26.61 11.571C26.5255 11.3175 26.6438 11.064 26.948 10.9626C27.3028 10.8443 27.4887 10.9119 27.8942 11.1485L28.2998 10.3543C27.776 9.99944 27.3028 9.88115 26.6776 10.1008C25.8158 10.3881 25.4609 11.1823 25.7144 11.9427C26.0017 12.7707 26.5762 13.0073 27.4718 13.1425ZM33.91 14.2916C32.9468 14.3254 32.4398 13.8015 32.4061 12.9059C32.3892 12.2976 32.6426 11.8244 33.2172 11.3851L33.0313 11.1147C32.7947 10.7937 32.6257 10.4895 32.6088 10.1008C32.575 9.27282 33.1327 8.79967 33.9438 8.78277C34.5014 8.76587 34.8901 8.90106 35.3125 9.18833L34.8901 9.98254C34.5859 9.76286 34.2986 9.66147 33.9607 9.67837C33.7072 9.67837 33.5551 9.86425 33.5551 10.0839C33.5551 10.3205 33.6396 10.4557 33.8255 10.7092L34.907 12.2469C34.9746 12.0103 35.0422 11.7568 35.076 11.4865L35.8026 11.7906C35.735 12.2638 35.6167 12.6862 35.4646 13.0411L36.2588 14.1564L35.228 14.1902L34.9577 13.8184C34.6873 14.0888 34.3155 14.2747 33.91 14.2916ZM33.91 13.4129C34.1466 13.4129 34.3493 13.2946 34.5014 13.1256L33.7072 12.0441C33.403 12.3145 33.3017 12.5849 33.3186 12.8552C33.3186 13.1932 33.5382 13.4129 33.91 13.4129ZM40.1961 14.9337C41.1593 15.1872 41.9028 14.714 42.1394 13.8691C42.3591 12.9904 42.0718 12.5342 41.2945 11.8244C40.8044 11.3682 40.6861 11.1316 40.7706 10.8274C40.8382 10.574 41.0748 10.4219 41.379 10.5064C41.7338 10.5909 41.869 10.7599 42.0718 11.1823L42.8491 10.7261C42.6125 10.1515 42.2746 9.77976 41.6324 9.61078C40.7537 9.3911 40.0271 9.84735 39.8243 10.6247C39.6047 11.4865 39.9595 11.9934 40.6186 12.6018C41.1424 13.0749 41.2607 13.3622 41.1931 13.6494C41.1086 14.0043 40.8551 14.1564 40.4665 14.055C40.1623 13.9705 39.875 13.7001 39.6723 13.2101L38.8611 13.717C39.0977 14.2578 39.4864 14.7478 40.1961 14.9337ZM42.5787 15.5758L44.86 10.743L46.1443 11.3513C47.0568 11.7906 47.4454 12.6018 46.9554 13.6156C46.4653 14.6633 45.4683 14.8154 44.6403 14.4268L44.2517 14.2409L43.4405 15.9814L42.5787 15.5758ZM44.6572 13.396L45.0797 13.5987C45.519 13.8015 45.8739 13.6494 46.0767 13.2101C46.2625 12.8045 46.2287 12.4159 45.7218 12.1793L45.2993 11.9765L44.6572 13.396ZM46.9385 17.9585L49.9125 13.5143L49.1183 12.9904L46.1443 17.4346L46.9385 17.9585ZM49.6084 16.5559C48.5776 17.6881 48.1551 18.9555 49.0338 19.7497C49.6422 20.3073 50.3181 20.2566 51.0954 19.7666L50.7236 18.9555C50.1829 19.2427 49.9463 19.2765 49.6929 19.0568C49.3042 18.702 49.5746 18.043 50.335 17.198C51.0954 16.3531 51.7206 16.0321 52.1093 16.3869C52.3628 16.6235 52.3459 16.8601 52.1093 17.3163L52.9711 17.705C53.3429 16.9953 53.4442 16.3024 52.7683 15.6941C51.8896 14.8999 50.6392 15.4237 49.6084 16.5559ZM52.4811 23.6531L53.2077 23.0955L52.0924 21.6085L53.2753 20.7129L54.0019 21.6761L54.7285 21.1353L54.0019 20.1721L54.8975 19.4962L55.9621 20.9325L56.6887 20.3749L55.0496 18.1781L50.7743 21.3888L52.4811 23.6531ZM55.5058 24.4136C55.5058 25.1233 55.3706 25.3936 55.1003 25.5288C54.7792 25.6978 54.4919 25.6133 54.3061 25.2585C54.154 24.9712 54.1878 24.5825 54.4074 24.1094L53.4949 23.839C53.2584 24.3798 53.1401 24.9881 53.4611 25.6471C53.9005 26.5258 54.7623 26.7962 55.5396 26.3906C56.3507 25.9851 56.4859 25.4612 56.5197 24.4136C56.5366 23.7545 56.638 23.5011 56.9253 23.349C57.1618 23.2307 57.4322 23.3152 57.5674 23.5855C57.7364 23.9066 57.7026 24.1094 57.5336 24.5487L58.3785 24.836C58.6489 24.2784 58.6996 23.7883 58.3954 23.1969C57.9898 22.3858 57.1618 22.1492 56.4352 22.5041C55.6579 22.9096 55.5058 23.518 55.5058 24.4136ZM65.9658 35.1608C65.9151 43.4409 62.6537 51.1971 56.7732 57.0101C50.9264 62.7893 43.204 65.9661 34.9915 65.9661C34.9239 65.9661 34.8732 65.9661 34.8056 65.9661C26.5255 65.9154 18.7692 62.6541 12.9563 56.7735C7.14332 50.893 3.96647 43.086 4.00027 34.8059C4.05096 26.5258 7.3123 18.7696 13.1929 12.9566C19.0734 7.14365 26.8804 3.9499 35.1436 4.00059C43.4236 4.05129 51.1799 7.31263 56.9929 13.1932C62.8227 19.0737 65.9996 26.8807 65.9658 35.1608ZM64.3942 35.1439C64.4449 27.2862 61.4202 19.8849 55.8945 14.2916C50.3688 8.69828 43.0012 5.60592 35.1436 5.55522C35.0929 5.55522 35.0253 5.55522 34.9746 5.55522C27.1845 5.55522 19.8338 8.56309 14.2912 14.055C8.69795 19.5807 5.60559 26.9483 5.5549 34.8059C5.5042 42.6636 8.52897 50.0649 14.0547 55.6582C19.5804 61.2515 26.948 64.3439 34.8056 64.3946C34.8563 64.3946 34.9239 64.3946 34.9746 64.3946C42.7646 64.3946 50.1153 61.3867 55.6579 55.8948C61.2512 50.386 64.3605 43.0015 64.3942 35.1439Z"></path>
</svg>
